<svg width="131" height="104" viewBox="0 0 131 104" fill="none" xmlns="http://www.w3.org/2000/svg">
<path fill-rule="evenodd" clip-rule="evenodd" d="M90.1638 0.0254006C93.8113 0.0265444 97.3865 0.976155 100.489 2.76785C103.591 4.55955 106.098 7.12257 107.729 10.1698L116.798 27.1184C118.396 26.5073 119.968 25.8472 121.513 25.1383C123.068 24.4137 124.867 24.2956 126.515 24.8098C128.163 25.3241 129.524 26.4286 130.3 27.8805C131.076 29.3323 131.202 31.0125 130.651 32.5515C130.101 34.0904 128.918 35.3621 127.363 36.0866C125.789 36.7404 124.206 37.376 122.615 37.9933L128.904 49.7551C130.269 52.3054 130.979 55.1177 130.977 57.9688L130.971 73.4226C130.97 76.0038 130.386 78.5558 129.257 80.9118C128.128 83.2678 126.479 85.3747 124.418 87.095L124.416 94.8249C124.415 97.2578 123.379 99.5908 121.537 101.311C119.694 103.03 117.195 103.996 114.59 103.995C111.986 103.995 109.488 103.027 107.646 101.307C105.805 99.5858 104.771 97.2523 104.772 94.8194L104.773 91.7617L26.1964 91.7395L26.1953 94.7973C26.1945 97.2301 25.1588 99.5631 23.3162 101.283C21.4736 103.003 18.975 103.968 16.3701 103.968C13.7651 103.967 11.2672 103 9.42578 101.279C7.5844 99.5581 6.5504 97.2246 6.55126 94.7917L6.55399 87.0618C2.53469 83.6971 0.00887211 78.8163 0.0107893 73.3857L0.0162473 57.9258C0.0184761 55.0788 0.73012 52.2713 2.09487 49.7255L8.33926 38.0589C6.75922 37.4388 5.19884 36.7718 3.65812 36.0579C2.11194 35.323 0.93688 34.0501 0.386229 32.5136C-0.164422 30.9771 -0.046559 29.3001 0.714411 27.844C1.09876 27.1251 1.63104 26.4839 2.28082 25.9573C2.9306 25.4306 3.68514 25.0286 4.50131 24.7744C5.31749 24.5202 6.1793 24.4187 7.03749 24.4757C7.89568 24.5328 8.73342 24.7472 9.50283 25.1067C11.0523 25.8206 12.6236 26.4815 14.2167 27.0894L23.2983 10.1521C24.9301 7.10467 27.4384 4.54181 30.542 2.75074C33.6456 0.959672 37.2219 0.0111636 40.8702 0.0115082L90.1638 0.0254006ZM36.0314 55.0494C33.4265 55.0487 30.9278 56.0145 29.0852 57.7342C27.2426 59.454 26.207 61.787 26.2061 64.2199C26.2053 66.6528 27.2393 68.9863 29.0807 70.7071C30.922 72.428 33.42 73.3951 36.0249 73.3959C38.6299 73.3966 41.1285 72.4308 42.9711 70.711C44.8137 68.9913 45.8494 66.6583 45.8502 64.2254C45.8511 61.7925 44.8171 59.459 42.9757 57.7382C41.1343 56.0173 38.6364 55.0502 36.0314 55.0494ZM94.9637 55.066C92.3587 55.0653 89.8601 56.0311 88.0175 57.7509C86.1749 59.4706 85.1393 61.8036 85.1384 64.2365C85.1375 66.6694 86.1715 69.0029 88.0129 70.7237C89.8543 72.4446 92.3522 73.4117 94.9572 73.4125C97.5622 73.4132 100.061 72.4474 101.903 70.7277C103.746 69.0079 104.782 66.6749 104.782 64.242C104.783 61.8091 103.749 59.4756 101.908 57.7548C100.067 56.0339 97.5686 55.0668 94.9637 55.066ZM90.1594 12.2564L40.8659 12.2425C39.7881 12.242 38.7269 12.49 37.7764 12.9645C36.8259 13.4389 36.0154 14.1252 35.417 14.9623L35.0108 15.6227L26.6893 31.1414C36.8246 33.9818 50.4828 36.7071 65.504 36.7113C79.5299 36.7153 92.3583 34.3461 102.24 31.7253L104.316 31.1633L96.0122 15.6399C95.5306 14.7396 94.8186 13.9643 93.9392 13.3826C93.0599 12.801 92.0405 12.431 90.9714 12.3055L90.166 12.2564L90.1594 12.2564Z" fill="#010101"/>
</svg>
