<svg width="37" height="32" viewBox="0 0 37 32" fill="none" xmlns="http://www.w3.org/2000/svg">
<path fill-rule="evenodd" clip-rule="evenodd" d="M24.7898 0.00781635C25.7927 0.00816831 26.7757 0.300385 27.6286 0.851731C28.4816 1.40308 29.1708 2.19178 29.6192 3.12948L32.1128 8.34493C32.5521 8.15688 32.9843 7.95377 33.4092 7.73561C33.8366 7.51265 34.3313 7.47629 34.7843 7.63454C35.2374 7.79279 35.6117 8.13269 35.825 8.57945C36.0383 9.02622 36.073 9.54325 35.9216 10.0168C35.7702 10.4904 35.4451 10.8817 35.0176 11.1047C34.5848 11.3058 34.1496 11.5014 33.7122 11.6914L35.4412 15.3108C35.8165 16.0955 36.0116 16.9609 36.0111 17.8383L36.0096 22.5938C36.0093 23.3881 35.8487 24.1734 35.5383 24.8984C35.2278 25.6234 34.7745 26.2717 34.2079 26.8011L34.2072 29.1798C34.207 29.9284 33.9222 30.6463 33.4156 31.1755C32.909 31.7048 32.222 32.0019 31.5058 32.0017C30.7896 32.0015 30.1028 31.7039 29.5965 31.1743C29.0902 30.6448 28.806 29.9267 28.8062 29.1781L28.8065 28.2371L7.2025 28.2303L7.2022 29.1713C7.20196 29.9199 6.91722 30.6378 6.41061 31.167C5.904 31.6962 5.21703 31.9934 4.50081 31.9932C3.78459 31.993 3.09781 31.6954 2.59153 31.1658C2.08526 30.6363 1.80097 29.9182 1.8012 29.1695L1.80195 26.7909C0.696875 25.7555 0.00242044 24.2535 0.00294756 22.5824L0.00444819 17.8251C0.00506098 16.949 0.200722 16.0851 0.57595 15.3017L2.2928 11.7116C1.85838 11.5208 1.42936 11.3155 1.00576 11.0958C0.580645 10.8697 0.257569 10.478 0.106172 10.0052C-0.0452255 9.53236 -0.0128199 9.0163 0.196403 8.56821C0.302078 8.34699 0.448424 8.14971 0.627075 7.98763C0.805727 7.82556 1.01318 7.70188 1.23758 7.62365C1.46199 7.54543 1.69893 7.51419 1.93489 7.53174C2.17084 7.54928 2.40117 7.61526 2.61272 7.7259C3.03872 7.94558 3.47074 8.14896 3.90876 8.33603L6.40567 3.12404C6.85433 2.18627 7.54396 1.39762 8.39728 0.846465C9.2506 0.295313 10.2339 0.00343529 11.2369 0.00354132L24.7898 0.00781635ZM9.90656 16.94C9.19034 16.9397 8.50336 17.2369 7.99676 17.7661C7.49015 18.2953 7.2054 19.0132 7.20517 19.7619C7.20493 20.5106 7.48922 21.2286 7.9955 21.7582C8.50177 22.2877 9.18856 22.5853 9.90478 22.5856C10.621 22.5858 11.308 22.2886 11.8146 21.7594C12.3212 21.2302 12.6059 20.5123 12.6062 19.7636C12.6064 19.015 12.3221 18.2969 11.8158 17.7673C11.3096 17.2378 10.6228 16.9402 9.90656 16.94ZM26.1096 16.9451C25.3933 16.9448 24.7064 17.242 24.1998 17.7712C23.6931 18.3005 23.4084 19.0184 23.4082 19.767C23.4079 20.5157 23.6922 21.2337 24.1985 21.7633C24.7048 22.2928 25.3916 22.5904 26.1078 22.5907C26.824 22.5909 27.511 22.2937 28.0176 21.7645C28.5242 21.2353 28.8089 20.5174 28.8092 19.7687C28.8094 19.0201 28.5251 18.302 28.0188 17.7724C27.5126 17.2429 26.8258 16.9453 26.1096 16.9451ZM24.7887 3.77156L11.2358 3.76728C10.9394 3.76714 10.6477 3.84346 10.3863 3.98946C10.125 4.13546 9.90216 4.34663 9.73762 4.60424L9.62593 4.80745L7.338 9.58291C10.1246 10.457 13.8799 11.2956 18.0098 11.2969C21.8661 11.2981 25.3932 10.5691 28.1102 9.76259L28.6809 9.58964L26.3978 4.81274C26.2654 4.53571 26.0697 4.29713 25.8279 4.11814C25.5861 3.93916 25.3058 3.8253 25.0119 3.78668L24.7905 3.77156L24.7887 3.77156Z" fill="white"/>
</svg>
