<svg width="27" height="27" viewBox="0 0 27 27" fill="none" xmlns="http://www.w3.org/2000/svg">
<path d="M13.7781 11.5664H26.7847C26.9282 12.3516 27 13.1016 27 13.8164C27 16.3594 26.4558 18.6299 25.3674 20.6279C24.2791 22.626 22.7272 24.1875 20.712 25.3125C18.6967 26.4375 16.3854 27 13.7781 27C11.9003 27 10.1123 26.6455 8.41395 25.9365C6.71561 25.2275 5.2505 24.2695 4.0186 23.0625C2.78671 21.8555 1.80897 20.4199 1.08538 18.7559C0.361794 17.0918 0 15.3398 0 13.5C0 11.6602 0.361794 9.9082 1.08538 8.24414C1.80897 6.58008 2.78671 5.14453 4.0186 3.9375C5.2505 2.73047 6.71561 1.77246 8.41395 1.06348C10.1123 0.354492 11.9003 0 13.7781 0C17.3661 0 20.4458 1.17773 23.0173 3.5332L19.2678 7.06641C17.7967 5.67187 15.9668 4.97461 13.7781 4.97461C12.2352 4.97461 10.809 5.35547 9.49934 6.11719C8.1897 6.87891 7.15216 7.91309 6.38671 9.21973C5.62126 10.5264 5.23854 11.9531 5.23854 13.5C5.23854 15.0469 5.62126 16.4736 6.38671 17.7803C7.15216 19.0869 8.1897 20.1211 9.49934 20.8828C10.809 21.6445 12.2352 22.0254 13.7781 22.0254C14.8186 22.0254 15.7754 21.8848 16.6485 21.6035C17.5216 21.3223 18.2392 20.9707 18.8013 20.5488C19.3635 20.127 19.8538 19.6465 20.2724 19.1074C20.691 18.5684 20.999 18.0586 21.1963 17.5781C21.3937 17.0977 21.5282 16.6406 21.6 16.207H13.7781V11.5664Z" fill="#FFFEFE"/>
</svg>
